HIERARCHY
ROOT Hips
{
    OFFSET   0.000000   0.000000   0.000000
    CHANNELS 6 Xposition Yposition Zposition Zrotation Xrotation Yrotation
    JOINT Chest
    {
        OFFSET   0.000000   8.007230   0.000000
        CHANNELS 3 Zrotation Xrotation Yrotation
        JOINT Chest2
        {
            OFFSET   0.000000  22.077100   0.000000
            CHANNELS 3 Zrotation Xrotation Yrotation
            JOINT Neck
            {
                OFFSET   0.000000  23.254700   0.000000
                CHANNELS 3 Zrotation Xrotation Yrotation
                JOINT Head
                {
                    OFFSET   0.000010  14.370000   1.956610
                    CHANNELS 3 Zrotation Xrotation Yrotation
                    End Site
                    {
                        OFFSET   0.000000  19.566000   0.000000
                    }
                }
            }
            JOINT LeftCollar
            {
                OFFSET   3.911900  19.017000  -0.467063
                CHANNELS 3 Zrotation Xrotation Yrotation
                JOINT LeftShoulder
                {
                    OFFSET  10.383700   0.000000   0.000000
                    CHANNELS 3 Zrotation Xrotation Yrotation
                    JOINT LeftElbow
                    {
                        OFFSET  26.662100   0.001671   0.000522
                        CHANNELS 3 Zrotation Xrotation Yrotation
                        JOINT LeftWrist
                        {
                            OFFSET  28.869000   0.000037  -0.000114
                            CHANNELS 3 Zrotation Xrotation Yrotation
                            JOINT LeftFinger0
                            {
                                OFFSET   2.044650  -2.323450   3.252850
                                CHANNELS 3 Zrotation Xrotation Yrotation
                                JOINT LeftFinger01
                                {
                                    OFFSET   3.088140   0.000000   0.000000
                                    CHANNELS 3 Zrotation Xrotation Yrotation
                                    JOINT LeftFinger02
                                    {
                                        OFFSET   2.639460   0.000000   0.000000
                                        CHANNELS 3 Zrotation Xrotation Yrotation
                                        End Site
                                        {
                                            OFFSET   2.582190   0.000000   0.000000
                                        }
                                    }
                                }
                            }
                            JOINT LeftFinger1
                            {
                                OFFSET   8.364480   0.000000   3.252850
                                CHANNELS 3 Zrotation Xrotation Yrotation
                                JOINT LeftFinger11
                                {
                                    OFFSET   4.646930   0.000000   0.000000
                                    CHANNELS 3 Zrotation Xrotation Yrotation
                                    JOINT LeftFinger12
                                    {
                                        OFFSET   2.323470   0.000000   0.000000
                                        CHANNELS 3 Zrotation Xrotation Yrotation
                                        End Site
                                        {
                                            OFFSET   2.273050   0.000000   0.000000
                                        }
                                    }
                                }
                            }
                            JOINT LeftFinger2
                            {
                                OFFSET   8.364490   0.000016   1.078090
                                CHANNELS 3 Zrotation Xrotation Yrotation
                                JOINT LeftFinger21
                                {
                                    OFFSET   5.111620   0.000000   0.000000
                                    CHANNELS 3 Zrotation Xrotation Yrotation
                                    JOINT LeftFinger22
                                    {
                                        OFFSET   2.788150   0.000013   0.000000
                                        CHANNELS 3 Zrotation Xrotation Yrotation
                                        End Site
                                        {
                                            OFFSET   2.727660   0.000000   0.000000
                                        }
                                    }
                                }
                            }
                            JOINT LeftFinger3
                            {
                                OFFSET   7.899780   0.000016  -1.078090
                                CHANNELS 3 Zrotation Xrotation Yrotation
                                JOINT LeftFinger31
                                {
                                    OFFSET   4.646930   0.000000   0.000000
                                    CHANNELS 3 Zrotation Xrotation Yrotation
                                    JOINT LeftFinger32
                                    {
                                        OFFSET   2.323470   0.000000   0.000000
                                        CHANNELS 3 Zrotation Xrotation Yrotation
                                        End Site
                                        {
                                            OFFSET   2.273050   0.000000   0.000000
                                        }
                                    }
                                }
                            }
                            JOINT LeftFinger4
                            {
                                OFFSET   7.435080   0.000000  -3.252850
                                CHANNELS 3 Zrotation Xrotation Yrotation
                                JOINT LeftFinger41
                                {
                                    OFFSET   3.717550   0.000000   0.000000
                                    CHANNELS 3 Zrotation Xrotation Yrotation
                                    JOINT LeftFinger42
                                    {
                                        OFFSET   1.858760   0.000000   0.000000
                                        CHANNELS 3 Zrotation Xrotation Yrotation
                                        End Site
                                        {
                                            OFFSET   1.818440   0.000000   0.000000
                                        }
                                    }
                                }
                            }
                        }
                    }
                }
            }
            JOINT RightCollar
            {
                OFFSET  -3.911900  19.017000  -0.467064
                CHANNELS 3 Zrotation Xrotation Yrotation
                JOINT RightShoulder
                {
                    OFFSET -10.383700   0.000000   0.000000
                    CHANNELS 3 Zrotation Xrotation Yrotation
                    JOINT RightElbow
                    {
                        OFFSET -26.662100   0.001633   0.000260
                        CHANNELS 3 Zrotation Xrotation Yrotation
                        JOINT RightWrist
                        {
                            OFFSET -28.869000  -0.000045  -0.000080
                            CHANNELS 3 Zrotation Xrotation Yrotation
                            JOINT RightFinger0
                            {
                                OFFSET  -2.044660  -2.323490   3.252850
                                CHANNELS 3 Zrotation Xrotation Yrotation
                                JOINT RightFinger01
                                {
                                    OFFSET  -3.088140   0.000000   0.000000
                                    CHANNELS 3 Zrotation Xrotation Yrotation
                                    JOINT RightFinger02
                                    {
                                        OFFSET  -2.639450   0.000000   0.000000
                                        CHANNELS 3 Zrotation Xrotation Yrotation
                                        End Site
                                        {
                                            OFFSET  -2.582190   0.000000   0.000000
                                        }
                                    }
                                }
                            }
                            JOINT RightFinger1
                            {
                                OFFSET  -8.364480   0.000000   3.252850
                                CHANNELS 3 Zrotation Xrotation Yrotation
                                JOINT RightFinger11
                                {
                                    OFFSET  -4.646920   0.000000   0.000000
                                    CHANNELS 3 Zrotation Xrotation Yrotation
                                    JOINT RightFinger12
                                    {
                                        OFFSET  -2.323470   0.000000   0.000000
                                        CHANNELS 3 Zrotation Xrotation Yrotation
                                        End Site
                                        {
                                            OFFSET  -2.273050   0.000000   0.000000
                                        }
                                    }
                                }
                            }
                            JOINT RightFinger2
                            {
                                OFFSET  -8.364480   0.000000   1.078090
                                CHANNELS 3 Zrotation Xrotation Yrotation
                                JOINT RightFinger21
                                {
                                    OFFSET  -5.111610   0.000000   0.000000
                                    CHANNELS 3 Zrotation Xrotation Yrotation
                                    JOINT RightFinger22
                                    {
                                        OFFSET  -2.788160   0.000000   0.000000
                                        CHANNELS 3 Zrotation Xrotation Yrotation
                                        End Site
                                        {
                                            OFFSET  -2.727660   0.000000   0.000000
                                        }
                                    }
                                }
                            }
                            JOINT RightFinger3
                            {
                                OFFSET  -7.899780   0.000000  -1.078090
                                CHANNELS 3 Zrotation Xrotation Yrotation
                                JOINT RightFinger31
                                {
                                    OFFSET  -4.646930   0.000000   0.000000
                                    CHANNELS 3 Zrotation Xrotation Yrotation
                                    JOINT RightFinger32
                                    {
                                        OFFSET  -2.323470   0.000000   0.000000
                                        CHANNELS 3 Zrotation Xrotation Yrotation
                                        End Site
                                        {
                                            OFFSET  -2.273050   0.000000   0.000000
                                        }
                                    }
                                }
                            }
                            JOINT RightFinger4
                            {
                                OFFSET  -7.435090   0.000000  -3.252850
                                CHANNELS 3 Zrotation Xrotation Yrotation
                                JOINT RightFinger41
                                {
                                    OFFSET  -3.717550   0.000000   0.000000
                                    CHANNELS 3 Zrotation Xrotation Yrotation
                                    JOINT RightFinger42
                                    {
                                        OFFSET  -1.858760   0.000000   0.000000
                                        CHANNELS 3 Zrotation Xrotation Yrotation
                                        End Site
                                        {
                                            OFFSET  -1.818440   0.000000   0.000000
                                        }
                                    }
                                }
                            }
                        }
                    }
                }
            }
        }
    }
    JOINT LeftHip
    {
        OFFSET   9.782990   0.000000   0.000000
        CHANNELS 3 Zrotation Xrotation Yrotation
        JOINT LeftKnee
        {
            OFFSET  -0.000063 -41.789100   0.001657
            CHANNELS 3 Zrotation Xrotation Yrotation
            JOINT LeftAnkle
            {
                OFFSET   0.000078 -41.133200  -0.000113
                CHANNELS 3 Zrotation Xrotation Yrotation
                JOINT LeftToe
                {
                    OFFSET   0.000000  -6.358970  14.674500
                    CHANNELS 3 Zrotation Xrotation Yrotation
                    End Site
                    {
                        OFFSET   0.000000   0.000000   3.913200
                    }
                }
            }
        }
    }
    JOINT RightHip
    {
        OFFSET  -9.782990   0.000000   0.000000
        CHANNELS 3 Zrotation Xrotation Yrotation
        JOINT RightKnee
        {
            OFFSET   0.000053 -41.789200   0.000277
            CHANNELS 3 Zrotation Xrotation Yrotation
            JOINT RightAnkle
            {
                OFFSET   0.000030 -41.133200  -0.000150
                CHANNELS 3 Zrotation Xrotation Yrotation
                JOINT RightToe
                {
                    OFFSET   0.000000  -6.358960  14.674500
                    CHANNELS 3 Zrotation Xrotation Yrotation
                    End Site
                    {
                        OFFSET   0.000000   0.000000   3.913200
                    }
                }
            }
        }
    }
}
MOTION
Frames: 6
Frame Time:   0.016667
  0.134415  89.584400   1.019830  -1.652220 -13.560700   4.309110   1.119440   8.064940   1.126260   2.109380  16.149200   2.123370  -4.009740  -0.393247  -0.027434  -6.588300  -0.785741   3.141870  -4.090170   1.881270   0.265236 -55.302900  -3.126710 -58.437900   5.733850 -30.990200 -106.363000 -61.573800 -56.567500 -54.700600  45.276500  22.298300 -50.168100  -1.838700  -0.000010   0.000266   4.080650   0.000036   0.001009 -12.914500  -0.546127   2.379560 -10.577700   0.001176   0.000725  -7.404370  -0.000037  -0.001638 -88.992500  -2.440360   0.042527 -90.760300   0.002527  -0.004851 -68.070200   0.003635  -0.000814 -88.936200  -4.990900   0.093966 -88.951300   0.002310  -0.000403 -66.713500   0.003665   0.002300 -88.984700 -10.002900   0.176302 -110.000000  -0.003602   0.003471 -79.999900  -0.002101  -0.003749   7.850630   0.743338   6.532630  68.903200  20.889500   0.848007  -3.613380  -2.258690  18.331900 -14.847500  -9.221370  -1.450620 -39.667100  22.473800  56.858000  21.750400   0.053274  -0.021159   5.875260   0.046227   0.008440  25.936400   3.999250   8.161640  21.454200  -0.000965  -0.059614  15.017900  -0.007568  -0.040195  28.639300   0.361055   0.661147  37.996100  -0.002958   0.005893  25.305400   0.003497   0.005627  28.195100   0.355931   0.663913  33.384600  -0.003119   0.006551  22.234100  -0.000316  -0.000167  34.885000   0.265483   0.380785  52.328800   0.000000   0.002699  34.851000   0.003004   0.006075   3.034580  14.587900   6.912440   1.461850   0.001695   8.133460  -2.032470  -2.097490   1.167790  -0.000000   0.000000   0.000000   3.491000  14.727700  -2.480140   0.075105   2.252790 -10.994400  -0.773928  -5.173330  -2.424820  -0.000000   0.000000   0.000000
  0.125354  89.584300   1.029440  -1.658590 -13.567000   4.308520   1.117030   8.065070   1.149130   2.100360  16.149800   2.170240  -4.001440  -0.361339  -0.024879  -6.574540  -0.722022   3.049840  -4.093700   1.915310   0.220503 -55.208800  -3.127740 -58.613900   5.680270 -30.889600 -106.024000 -62.263000 -57.104500 -55.383500  44.953900  21.956100 -50.293800  -2.332810  -0.000075   0.002132   3.833610   0.000000   0.001070 -13.108900  -0.644938   2.761090 -10.739400   0.001113   0.000753  -7.517560  -0.000091  -0.001679 -88.991900  -2.834070   0.047728 -91.061000   0.002639  -0.004862 -68.295800   0.003664  -0.000860 -89.023800  -4.990980   0.085091 -89.232700   0.002373  -0.000407 -66.924600   0.003740   0.002270 -88.984700 -10.002900   0.176309 -110.000000  -0.003618   0.003437 -79.999900  -0.002099  -0.003751   7.851680   0.756888   6.523000  68.922100  20.925700   0.854441  -3.561670  -2.302230  18.262800 -14.815400  -9.154380  -1.461720 -39.662200  22.477300  56.861000  21.762600   0.041696  -0.016595   5.881280   0.041328   0.016795  25.920500   3.998920   8.163510  21.441300  -0.002253  -0.048491  15.008900  -0.007680  -0.031725  28.639000   0.369513   0.676668  37.973000  -0.000258  -0.002199  25.290000   0.003584   0.005969  28.182500   0.364132   0.679567  33.291500   0.001369  -0.002486  22.172200   0.001005   0.001853  34.854500   0.272515   0.391339  52.283200   0.000000   0.002718  34.820600   0.003060   0.006102   3.046210  14.597800   6.913060   1.466000   0.003171   8.128500  -2.037030  -2.103800   1.168120  -0.000000   0.000000  -0.000000   3.507510  14.733900  -2.482780   0.075996   2.259670 -10.994300  -0.779123  -5.181830  -2.424810   0.000000   0.000000   0.000000
  0.115654  89.584400   1.039260  -1.659250 -13.574400   4.324630   1.109690   8.065190   1.170990   2.081500  16.150300   2.215820  -3.995980  -0.332350  -0.022887  -6.564700  -0.664265   2.968790  -4.080620   1.918420   0.195340 -54.965500  -3.034170 -58.841800   5.599100 -30.813800 -105.750000 -63.077100 -57.231500 -56.094400  45.006800  22.219300 -50.767200  -1.993360  -0.000129   0.021620   4.003320   0.000000   0.010297 -13.406100  -0.733472   3.060080 -10.985300   0.001048   0.000785  -7.689730  -0.000114  -0.001706 -88.991300  -3.145540   0.051970 -91.324500   0.002749  -0.004874 -68.493300   0.003694  -0.000917 -89.010400  -4.991060   0.082377 -89.511000   0.002442  -0.000419 -67.133300   0.003814   0.002235 -88.984700 -10.002900   0.176308 -110.000000  -0.003637   0.003394 -79.999900  -0.002093  -0.003748   7.856770   0.761118   6.529000  68.951300  20.952900   0.851194  -3.512940  -2.343710  18.195900 -14.811500  -9.106050  -1.475030 -39.657900  22.485300  56.871300  21.770300   0.035832  -0.014276   5.884760   0.036759   0.021308  25.906300   3.999880   8.171340  21.429800  -0.002566  -0.039558  15.000800  -0.005472  -0.025645  28.638800   0.378469   0.693095  37.956800  -0.001387  -0.000302  25.279200   0.003660   0.006266  28.172100   0.372850   0.696121  33.214100  -0.000891  -0.000209  22.120600   0.002280   0.003777  34.825200   0.279289   0.401487  52.239300   0.000000   0.002732  34.791400   0.003115   0.006117   3.059340  14.595500   6.913080   1.469520   0.030613   8.122290  -2.044410  -2.124230   1.155510   0.000000   0.000000   0.000000   3.526950  14.741000  -2.490390   0.077092   2.266710 -10.998100  -0.786238  -5.189860  -2.433710  -0.000000   0.000000   0.000000
  0.106419  89.584700   1.049120  -1.655400 -13.580800   4.359480   1.098480   8.065290   1.189300   2.056820  16.150600   2.254540  -3.994070  -0.306262  -0.021370  -6.562250  -0.612250   2.904010  -4.052090   1.918870   0.177306 -54.588300  -2.863830 -59.084500   5.567760 -30.696100 -105.576000 -63.928000 -56.993200 -56.793900  45.109600  22.525200 -51.130900  -1.653920  -0.000174   0.039509   4.173030   0.000000   0.019458 -13.756300  -0.822230   3.348380 -11.275100   0.000983   0.000816  -7.892600  -0.000131  -0.001729 -88.990600  -3.446820   0.057332 -91.533900   0.002858  -0.004885 -68.650400   0.003725  -0.000979 -88.996700  -4.991140   0.081636 -89.737600   0.002511  -0.000434 -67.303200   0.003889   0.002201 -88.984700 -10.003000   0.176307 -110.000000  -0.003657   0.003351 -79.999900  -0.002086  -0.003744   7.865600   0.761787   6.538960  68.979400  20.985100   0.847975  -3.466720  -2.371670  18.125600 -14.811700  -9.068030  -1.487020 -39.653700  22.485000  56.889100  21.775300   0.033457  -0.013334   5.886900   0.034113   0.025394  25.897300   4.003370   8.182770  21.423100  -0.002656  -0.030140  14.996200  -0.002853  -0.019676  28.638400   0.388741   0.711909  37.948500  -0.003127   0.002709  25.273700   0.003728   0.006521  28.163600   0.382876   0.715067  33.151200  -0.004414   0.003395  22.078600   0.003467   0.005552  34.807900   0.283302   0.407495  52.213300   0.000000   0.002743  34.774100   0.003169   0.006129   3.073110  14.593200   6.913270   1.471390   0.055840   8.111060  -2.052850  -2.138620   1.130350  -0.000000   0.000000  -0.000000   3.546300  14.747400  -2.501640   0.078552   2.274040 -11.005100  -0.794950  -5.198250  -2.453420  -0.000000   0.000000   0.000000
  0.097753  89.585100   1.058080  -1.650520 -13.583200   4.405280   1.086160   8.065360   1.200780   2.029900  16.150700   2.280020  -3.997100  -0.285599  -0.020625  -6.568990  -0.570845   2.863180  -4.010750   1.889680   0.171288 -54.166700  -2.652750 -59.314400   5.628610 -30.547800 -105.495000 -64.672600 -56.234700 -57.257200  44.997700  22.257800 -50.814400  -1.836550  -0.000209   0.038563   4.081720  -0.000052   0.019035 -14.187300  -0.943039   3.770250 -11.634200   0.000917   0.000842  -8.143960  -0.000151  -0.001756 -88.989300  -3.885480   0.068849 -91.647900   0.002966  -0.004892 -68.735900   0.003757  -0.001049 -89.038600  -4.991220   0.080578 -89.832200   0.002582  -0.000444 -67.374200   0.003965   0.002173 -88.984700 -10.003000   0.176308 -110.000000  -0.003677   0.003318 -79.999900  -0.002076  -0.003743   7.883800   0.746158   6.548840  68.996200  21.030300   0.848803  -3.423130  -2.374900  18.055500 -14.814900  -9.047990  -1.495690 -39.635900  22.453400  56.917000  21.781600   0.036449  -0.014505   5.890410   0.042265   0.028593  25.910500   4.009610   8.190310  21.434300  -0.002790  -0.011321  15.004000  -0.002373  -0.007357  28.638100   0.398770   0.730186  37.983300  -0.004443   0.005270  25.296900   0.003790   0.006739  28.160600   0.392687   0.733463  33.129900  -0.007208   0.006432  22.064500   0.004387   0.006901  34.814800   0.281728   0.405120  52.223500   0.000000   0.002753  34.780900   0.003226   0.006146   3.085700  14.605400   6.916950   1.475810   0.028688   8.089940  -2.059700  -2.124530   1.101320  -0.000000   0.000000   0.000000   3.562170  14.750500  -2.515000   0.081912   2.282290 -11.012200  -0.804553  -5.207280  -2.480440  -0.000000   0.000000   0.000000
  0.091503  89.585700   1.067240  -1.644150 -13.583100   4.458820   1.074130   8.065390   1.205250   2.005030  16.150600   2.290480  -4.017570  -0.266323  -0.020198  -6.600710  -0.532125   2.844060  -3.966120   1.846140   0.159614 -53.701400  -2.442120 -59.532300   5.776360 -30.370500 -105.475000 -65.247100 -55.179000 -57.463900  44.814300  21.771500 -50.229800  -2.412350  -0.000240   0.032678   3.793820  -0.000126   0.016074 -14.450100  -1.017250   4.033130 -11.853900   0.000849   0.000866  -8.297780  -0.000173  -0.001784 -88.988400  -4.158580   0.076745 -91.684000   0.003075  -0.004897 -68.763000   0.003789  -0.001119 -89.080500  -4.991310   0.080139 -89.849700   0.002653  -0.000454 -67.387300   0.004041   0.002143 -88.984700 -10.003000   0.176309 -110.000000  -0.003696   0.003285 -79.999900  -0.002070  -0.003742   7.901240   0.730535   6.554750  69.007500  21.082900   0.853095  -3.379560  -2.378050  17.990400 -14.817300  -9.028130  -1.499570 -39.601400  22.412000  56.930600  21.785100   0.039658  -0.015738   5.892510   0.056097   0.036212  25.922700   4.019090   8.205230  21.445500  -0.002885   0.001278  15.011800  -0.002304   0.000887  28.637700   0.412181   0.754676  38.018100  -0.005146   0.006717  25.320100   0.003845   0.006907  28.158200   0.405833   0.758097  33.113400  -0.008739   0.008140  22.053500   0.004829   0.007538  34.821600   0.280155   0.402744  52.233800   0.000000   0.002764  34.787700   0.003281   0.006164   3.097550  14.617500   6.923100   1.480200   0.001534   8.064070  -2.067740  -2.110440   1.067780  -0.000000   0.000000  -0.000000   3.575220  14.752400  -2.529640   0.088510   2.287080 -11.020500  -0.814796  -5.215160  -2.511520  -0.000000   0.000000   0.000000
